<svg xmlns="http://www.w3.org/2000/svg" xmlns:xlink="http://www.w3.org/1999/xlink" width="684" zoomAndPan="magnify" viewBox="0 0 684 683.999997" height="683.999997" preserveAspectRatio="xMidYMid meet" version="1.0"><defs><g><g id="id1"/></g><clipPath id="id2"><path d="M 188 84.378906 L 262 84.378906 L 262 157 L 188 157 Z M 188 84.378906 " clip-rule="nonzero"/></clipPath><clipPath id="id3"><path d="M 179 174 L 477 174 L 477 509.636719 L 179 509.636719 Z M 179 174 " clip-rule="nonzero"/></clipPath></defs><rect x="-68.4" width="820.8" fill="rgb(100%, 100%, 100%)" y="-68.4" height="820.799996" fill-opacity="1"/><rect x="-68.4" width="820.8" fill="rgb(100%, 100%, 100%)" y="-68.4" height="820.799996" fill-opacity="1"/><rect x="-68.4" width="820.8" fill="rgb(100%, 100%, 100%)" y="-68.4" height="820.799996" fill-opacity="1"/><g fill="rgb(0%, 65.879822%, 65.879822%)" fill-opacity="1"><g transform="translate(0.0000017, 523.835379)"><g><path d="M 303.578125 -334.125 L 308.34375 -214.3125 L 299.28125 -214.3125 C 285.269531 -256.632812 272.851562 -285.507812 262.03125 -300.9375 C 251.21875 -316.375 235.628906 -324.09375 215.265625 -324.09375 L 209.546875 -324.09375 L 209.546875 -10.03125 L 250.109375 -10.03125 L 250.109375 0 L 75.890625 0 L 75.890625 -10.03125 L 116.46875 -10.03125 L 116.46875 -324.09375 L 110.265625 -324.09375 C 89.898438 -324.09375 74.144531 -316.054688 63 -299.984375 C 51.863281 -283.921875 39.613281 -255.363281 26.25 -214.3125 L 17.1875 -214.3125 L 21.953125 -334.125 Z M 303.578125 -334.125 "/></g></g></g><g fill="rgb(0%, 65.879822%, 65.879822%)" fill-opacity="1"><g transform="translate(401.391605, 523.835379)"><g><path d="M 10.03125 -334.125 L 258.21875 -334.125 L 263 -234.84375 L 254.40625 -234.84375 C 242.632812 -269.207031 229.03125 -292.59375 213.59375 -305 C 198.164062 -317.414062 175.175781 -323.625 144.625 -323.625 L 131.265625 -323.625 L 131.265625 -168.484375 L 152.734375 -168.484375 C 168.015625 -168.484375 180.742188 -174.050781 190.921875 -185.1875 C 201.109375 -196.332031 208.109375 -211.609375 211.921875 -231.015625 L 219.09375 -231.015625 L 219.09375 -89.734375 L 210.96875 -89.734375 C 205.875 -113.597656 198.789062 -130.617188 189.71875 -140.796875 C 180.65625 -150.984375 168.328125 -156.078125 152.734375 -156.078125 L 131.265625 -156.078125 L 131.265625 -10.5 L 190.453125 -10.5 L 190.453125 0 L 10.03125 0 L 10.03125 -10.5 L 38.1875 -10.5 L 38.1875 -323.625 L 10.03125 -323.625 Z M 10.03125 -334.125 "/></g></g></g><path fill="rgb(100%, 100%, 100%)" d="M 255.882812 120.65625 C 231.890625 124.542969 228.738281 127.691406 224.84375 151.644531 C 220.957031 127.691406 217.804688 124.542969 193.8125 120.65625 C 217.804688 116.773438 220.957031 113.625 224.84375 89.671875 C 228.738281 113.625 231.890625 116.773438 255.882812 120.65625 " fill-opacity="1" fill-rule="nonzero"/><g clip-path="url(#id2)"><path fill="rgb(13.729858%, 12.159729%, 12.548828%)" d="M 214.609375 120.65625 C 216.921875 121.804688 218.882812 123.179688 220.601562 124.898438 C 222.324219 126.613281 223.699219 128.570312 224.84375 130.882812 C 225.996094 128.570312 227.371094 126.613281 229.089844 124.898438 C 230.8125 123.179688 232.769531 121.804688 235.085938 120.65625 C 232.769531 119.511719 230.8125 118.140625 229.089844 116.421875 C 227.371094 114.703125 225.996094 112.746094 224.84375 110.4375 C 223.699219 112.746094 222.324219 114.703125 220.601562 116.421875 C 218.882812 118.140625 216.921875 119.511719 214.609375 120.65625 Z M 224.84375 156.921875 C 222.253906 156.921875 220.050781 155.042969 219.632812 152.488281 C 217.914062 141.929688 216.375 135.59375 213.132812 132.355469 C 209.890625 129.121094 203.542969 127.578125 192.96875 125.867188 C 190.410156 125.449219 188.53125 123.242188 188.53125 120.65625 C 188.53125 118.070312 190.410156 115.863281 192.96875 115.453125 C 203.542969 113.738281 209.890625 112.199219 213.132812 108.957031 C 216.375 105.726562 217.914062 99.382812 219.632812 88.824219 C 220.050781 86.273438 222.253906 84.398438 224.84375 84.398438 C 227.4375 84.398438 229.644531 86.273438 230.0625 88.824219 C 231.773438 99.382812 233.320312 105.726562 236.5625 108.957031 C 239.804688 112.199219 246.148438 113.738281 256.726562 115.453125 C 259.285156 115.863281 261.164062 118.070312 261.164062 120.65625 C 261.164062 123.242188 259.285156 125.449219 256.726562 125.867188 C 246.148438 127.578125 239.804688 129.121094 236.5625 132.355469 C 233.320312 135.59375 231.773438 141.929688 230.0625 152.488281 C 229.644531 155.042969 227.4375 156.921875 224.84375 156.921875 " fill-opacity="1" fill-rule="nonzero"/></g><path fill="rgb(100%, 100%, 100%)" d="M 188.421875 173.644531 C 159.828125 178.273438 156.070312 182.027344 151.433594 210.574219 C 146.800781 182.027344 143.039062 178.273438 114.449219 173.644531 C 143.039062 169.015625 146.800781 165.261719 151.433594 136.714844 C 156.070312 165.261719 159.828125 169.015625 188.421875 173.644531 " fill-opacity="1" fill-rule="nonzero"/><path fill="rgb(13.729858%, 12.159729%, 12.548828%)" d="M 136.792969 173.644531 C 140.347656 175.136719 143.222656 176.976562 145.660156 179.410156 C 148.09375 181.84375 149.941406 184.71875 151.433594 188.261719 C 152.929688 184.71875 154.773438 181.84375 157.207031 179.410156 C 159.644531 176.976562 162.523438 175.136719 166.078125 173.644531 C 162.523438 172.152344 159.644531 170.3125 157.207031 167.878906 C 154.773438 165.445312 152.929688 162.570312 151.433594 159.027344 C 149.941406 162.570312 148.09375 165.445312 145.660156 167.878906 C 143.222656 170.3125 140.347656 172.152344 136.792969 173.644531 Z M 151.433594 215.847656 C 148.84375 215.847656 146.632812 213.972656 146.21875 211.417969 C 144.140625 198.625 142.246094 190.921875 138.1875 186.871094 C 134.132812 182.816406 126.417969 180.929688 113.601562 178.855469 C 111.046875 178.4375 109.164062 176.234375 109.164062 173.644531 C 109.164062 171.058594 111.046875 168.851562 113.601562 168.4375 C 126.417969 166.363281 134.132812 164.46875 138.1875 160.421875 C 142.246094 156.367188 144.140625 148.667969 146.21875 135.871094 C 146.632812 133.316406 148.84375 131.441406 151.433594 131.441406 C 154.027344 131.441406 156.234375 133.316406 156.652344 135.871094 C 158.730469 148.667969 160.625 156.367188 164.679688 160.421875 C 168.738281 164.46875 176.453125 166.363281 189.261719 168.4375 C 191.824219 168.851562 193.703125 171.058594 193.703125 173.644531 C 193.703125 176.234375 191.824219 178.4375 189.261719 178.855469 C 176.453125 180.929688 168.738281 182.816406 164.679688 186.871094 C 160.625 190.921875 158.730469 198.625 156.652344 211.417969 C 156.234375 213.972656 154.027344 215.847656 151.433594 215.847656 " fill-opacity="1" fill-rule="nonzero"/><g clip-path="url(#id3)"><path fill="rgb(100%, 100%, 100%)" d="M 372.753906 509.617188 C 372.40625 509.617188 372.050781 509.613281 371.699219 509.601562 C 366.515625 509.460938 362.136719 507.414062 358.691406 503.503906 C 355.949219 500.398438 353.851562 496.164062 352.277344 490.554688 C 349.609375 481.058594 348.789062 468.996094 347.917969 456.230469 C 347.003906 442.816406 346.058594 428.949219 342.839844 418.851562 C 338.824219 406.257812 332.792969 404.628906 327.980469 404.621094 C 323.171875 404.628906 317.140625 406.257812 313.125 418.851562 C 309.910156 428.949219 308.960938 442.816406 308.046875 456.230469 C 307.179688 468.996094 306.359375 481.058594 303.6875 490.554688 C 302.117188 496.164062 300.015625 500.398438 297.277344 503.503906 C 293.828125 507.414062 289.453125 509.460938 284.269531 509.601562 C 283.917969 509.613281 283.5625 509.617188 283.210938 509.617188 C 266.644531 509.621094 251.617188 498.972656 238.527344 477.949219 C 228.097656 461.210938 218.699219 437.574219 210.585938 407.699219 C 208.925781 401.582031 206.71875 394.296875 204.164062 385.867188 C 194.585938 354.289062 181.476562 311.042969 179.613281 271.679688 C 179.117188 261.234375 179.457031 251.53125 180.628906 242.824219 C 181.933594 233.148438 184.300781 224.398438 187.667969 216.796875 C 195.363281 199.449219 208.476562 187.449219 226.65625 181.136719 C 248.34375 173.601562 268.136719 172.761719 287.160156 178.570312 C 303.5625 183.570312 316.886719 192.734375 328.640625 200.824219 C 328.644531 200.824219 328.644531 200.824219 328.652344 200.824219 C 343.078125 190.152344 356.84375 183 370.660156 178.988281 C 379.773438 176.339844 389.039062 175.054688 398.1875 175.175781 C 408.359375 175.300781 418.683594 177.164062 428.875 180.703125 C 447.109375 187.035156 460.265625 199.101562 467.980469 216.566406 C 471.359375 224.210938 473.738281 233.023438 475.042969 242.757812 C 476.222656 251.515625 476.570312 261.28125 476.078125 271.796875 C 475.261719 289.363281 472.164062 309.222656 466.625 332.484375 C 461.917969 352.246094 456.203125 371.199219 451.613281 386.429688 C 449.140625 394.636719 447 401.71875 445.378906 407.699219 C 437.265625 437.574219 427.863281 461.210938 417.4375 477.949219 C 404.34375 498.972656 389.320312 509.617188 372.753906 509.617188 " fill-opacity="1" fill-rule="nonzero"/><path fill="rgb(13.729858%, 12.159729%, 12.548828%)" d="M 328.039062 393.839844 C 334.546875 393.863281 340.082031 396.046875 344.492188 400.351562 C 348.183594 403.953125 351.007812 408.933594 353.128906 415.582031 C 356.738281 426.914062 357.734375 441.445312 358.691406 455.5 C 359.519531 467.695312 360.304688 479.214844 362.671875 487.644531 C 365.765625 498.65625 370.125 498.773438 371.992188 498.828125 C 384.863281 499.175781 397.070312 490.234375 408.273438 472.253906 C 418.140625 456.410156 427.121094 433.742188 434.960938 404.878906 C 436.621094 398.757812 438.777344 391.601562 441.273438 383.324219 C 450.660156 352.191406 463.511719 309.566406 465.292969 271.292969 C 467.351562 227.242188 454.28125 200.9375 425.328125 190.886719 C 396.152344 180.75 368.320312 185.9375 338.175781 207.25 C 347.167969 213.050781 355.492188 217.277344 364.03125 217.277344 C 367.011719 217.277344 369.433594 219.691406 369.433594 222.667969 C 369.433594 225.644531 367.011719 228.058594 364.03125 228.058594 C 349.207031 228.058594 336.246094 219.140625 322.523438 209.699219 C 299.679688 193.988281 273.792969 176.179688 230.203125 191.320312 C 201.347656 201.34375 188.328125 227.460938 190.394531 271.175781 C 192.199219 309.195312 205.085938 351.703125 214.496094 382.738281 C 217.078125 391.253906 219.304688 398.609375 221.007812 404.878906 C 228.84375 433.742188 237.824219 456.410156 247.695312 472.253906 C 258.894531 490.234375 271.101562 499.179688 283.972656 498.828125 C 285.835938 498.773438 290.203125 498.65625 293.292969 487.644531 C 295.660156 479.214844 296.445312 467.695312 297.277344 455.5 C 298.234375 441.445312 299.222656 426.914062 302.839844 415.582031 C 304.957031 408.933594 307.78125 403.953125 311.472656 400.351562 C 315.886719 396.046875 321.417969 393.863281 327.929688 393.839844 C 327.9375 393.839844 327.953125 393.839844 327.960938 393.839844 L 328.003906 393.839844 C 328.015625 393.839844 328.023438 393.839844 328.039062 393.839844 Z M 372.753906 509.617188 C 372.40625 509.617188 372.050781 509.613281 371.699219 509.601562 C 366.515625 509.460938 362.136719 507.414062 358.691406 503.503906 C 355.949219 500.398438 353.851562 496.164062 352.277344 490.554688 C 349.609375 481.058594 348.789062 468.996094 347.917969 456.230469 C 347.003906 442.816406 346.058594 428.949219 342.839844 418.851562 C 338.824219 406.257812 332.792969 404.628906 327.980469 404.621094 C 323.171875 404.628906 317.140625 406.257812 313.125 418.851562 C 309.910156 428.949219 308.960938 442.816406 308.046875 456.230469 C 307.179688 468.996094 306.359375 481.058594 303.6875 490.554688 C 302.117188 496.164062 300.015625 500.398438 297.277344 503.503906 C 293.828125 507.414062 289.453125 509.460938 284.269531 509.601562 C 283.917969 509.613281 283.5625 509.617188 283.210938 509.617188 C 266.644531 509.621094 251.617188 498.972656 238.527344 477.949219 C 228.097656 461.210938 218.699219 437.574219 210.585938 407.699219 C 208.925781 401.582031 206.71875 394.296875 204.164062 385.867188 C 194.585938 354.289062 181.476562 311.042969 179.613281 271.679688 C 179.117188 261.234375 179.457031 251.53125 180.628906 242.824219 C 181.933594 233.148438 184.300781 224.398438 187.667969 216.796875 C 195.363281 199.449219 208.476562 187.449219 226.65625 181.136719 C 248.34375 173.601562 268.136719 172.761719 287.160156 178.570312 C 303.5625 183.570312 316.886719 192.734375 328.640625 200.824219 C 328.644531 200.824219 328.644531 200.824219 328.652344 200.824219 C 343.078125 190.152344 356.84375 183 370.660156 178.988281 C 379.773438 176.339844 389.039062 175.054688 398.1875 175.175781 C 408.359375 175.300781 418.683594 177.164062 428.875 180.703125 C 447.109375 187.035156 460.265625 199.101562 467.980469 216.566406 C 471.359375 224.210938 473.738281 233.023438 475.042969 242.757812 C 476.222656 251.515625 476.570312 261.28125 476.078125 271.796875 C 475.261719 289.363281 472.164062 309.222656 466.625 332.484375 C 461.917969 352.246094 456.203125 371.199219 451.613281 386.429688 C 449.140625 394.636719 447 401.71875 445.378906 407.699219 C 437.265625 437.574219 427.863281 461.210938 417.4375 477.949219 C 404.34375 498.972656 389.320312 509.617188 372.753906 509.617188 " fill-opacity="1" fill-rule="nonzero"/></g><path fill="rgb(94.509888%, 46.269226%, 57.649231%)" d="M 408.945312 327.273438 C 408.808594 331.773438 400.003906 335.15625 389.285156 334.828125 C 378.5625 334.5 369.984375 330.582031 370.125 326.082031 C 370.261719 321.578125 379.066406 318.199219 389.789062 318.53125 C 400.507812 318.859375 409.085938 322.769531 408.945312 327.273438 " fill-opacity="1" fill-rule="nonzero"/><path fill="rgb(0%, 0%, 0%)" d="M 294.113281 289.222656 C 293.773438 300.253906 284.542969 308.917969 273.496094 308.582031 C 262.449219 308.242188 253.769531 299.027344 254.109375 288 C 254.449219 276.972656 263.675781 268.304688 274.726562 268.640625 C 285.773438 268.980469 294.453125 278.195312 294.113281 289.222656 " fill-opacity="1" fill-rule="nonzero"/><path fill="rgb(100%, 100%, 100%)" d="M 288.160156 282.128906 C 288.042969 285.945312 284.847656 288.941406 281.027344 288.824219 C 277.207031 288.703125 274.203125 285.519531 274.324219 281.703125 C 274.4375 277.890625 277.632812 274.890625 281.453125 275.011719 C 285.273438 275.125 288.277344 278.3125 288.160156 282.128906 " fill-opacity="1" fill-rule="nonzero"/><path fill="rgb(100%, 100%, 100%)" d="M 268.328125 292.882812 C 268.269531 294.757812 266.695312 296.234375 264.816406 296.171875 C 262.9375 296.117188 261.460938 294.546875 261.519531 292.671875 C 261.578125 290.796875 263.148438 289.320312 265.027344 289.378906 C 266.90625 289.4375 268.382812 291.007812 268.328125 292.882812 " fill-opacity="1" fill-rule="nonzero"/><path fill="rgb(0%, 0%, 0%)" d="M 405.488281 292.640625 C 405.148438 303.667969 395.921875 312.335938 384.871094 311.996094 C 373.828125 311.65625 365.148438 302.441406 365.484375 291.410156 C 365.824219 280.382812 375.054688 271.714844 386.097656 272.054688 C 397.148438 272.390625 405.828125 281.605469 405.488281 292.640625 " fill-opacity="1" fill-rule="nonzero"/><path fill="rgb(100%, 100%, 100%)" d="M 399.535156 285.539062 C 399.417969 289.355469 396.222656 292.355469 392.402344 292.234375 C 388.582031 292.121094 385.582031 288.933594 385.699219 285.117188 C 385.816406 281.300781 389.007812 278.300781 392.828125 278.421875 C 396.648438 278.539062 399.652344 281.726562 399.535156 285.539062 " fill-opacity="1" fill-rule="nonzero"/><path fill="rgb(100%, 100%, 100%)" d="M 379.703125 296.296875 C 379.640625 298.171875 378.074219 299.644531 376.195312 299.589844 C 374.3125 299.527344 372.839844 297.964844 372.894531 296.082031 C 372.953125 294.207031 374.523438 292.734375 376.40625 292.792969 C 378.28125 292.851562 379.757812 294.417969 379.703125 296.296875 " fill-opacity="1" fill-rule="nonzero"/><path fill="rgb(94.509888%, 46.269226%, 57.649231%)" d="M 286.808594 323.671875 C 286.667969 328.171875 277.867188 331.550781 267.148438 331.226562 C 256.425781 330.898438 247.847656 326.980469 247.988281 322.480469 C 248.125 317.980469 256.929688 314.597656 267.648438 314.925781 C 278.367188 315.253906 286.945312 319.167969 286.808594 323.671875 " fill-opacity="1" fill-rule="nonzero"/><path fill="rgb(0%, 0%, 0%)" d="M 303.597656 313.683594 C 303.585938 314.144531 304.722656 352.496094 331.773438 351.992188 C 331.792969 351.992188 331.8125 351.992188 331.828125 351.992188 C 331.976562 351.988281 332.128906 351.980469 332.28125 351.976562 C 332.433594 351.964844 332.585938 351.964844 332.734375 351.957031 C 332.753906 351.957031 332.769531 351.957031 332.785156 351.957031 L 332.785156 351.953125 C 359.8125 350.523438 359.886719 315.003906 359.84375 314.558594 C 354.695312 308.136719 308.273438 306.910156 303.597656 313.683594 " fill-opacity="1" fill-rule="nonzero"/><path fill="rgb(94.509888%, 46.269226%, 57.649231%)" d="M 319.371094 332.230469 C 315.339844 332.203125 311.601562 333.433594 308.503906 335.539062 C 312.398438 344.261719 319.351562 352.226562 331.773438 351.992188 C 331.792969 351.992188 331.8125 351.992188 331.828125 351.992188 C 331.976562 351.988281 332.128906 351.980469 332.28125 351.976562 C 332.433594 351.964844 332.585938 351.964844 332.734375 351.957031 C 332.753906 351.957031 332.769531 351.957031 332.785156 351.957031 L 332.785156 351.953125 C 334.808594 351.847656 336.679688 351.546875 338.410156 351.085938 C 338.269531 340.691406 329.820312 332.285156 319.371094 332.230469 " fill-opacity="1" fill-rule="nonzero"/><path fill="rgb(13.729858%, 12.159729%, 12.548828%)" d="M 499.804688 371.394531 C 499.183594 371.394531 498.558594 371.304688 497.941406 371.109375 C 489.929688 368.582031 467.125 356.628906 457.9375 350.140625 C 455.15625 348.171875 454.492188 344.324219 456.464844 341.542969 C 458.433594 338.765625 462.289062 338.105469 465.074219 340.070312 C 473.808594 346.242188 495.28125 357.332031 501.660156 359.347656 C 504.910156 360.371094 506.714844 363.835938 505.6875 367.085938 C 504.859375 369.714844 502.421875 371.394531 499.804688 371.394531 " fill-opacity="1" fill-rule="nonzero"/><path fill="rgb(13.729858%, 12.159729%, 12.548828%)" d="M 160.777344 380.433594 C 158.160156 380.433594 155.726562 378.75 154.890625 376.121094 C 153.863281 372.875 155.671875 369.410156 158.921875 368.386719 C 164.972656 366.476562 183.457031 355.734375 192.835938 349.109375 C 195.621094 347.144531 199.476562 347.804688 201.445312 350.585938 C 203.417969 353.363281 202.757812 357.210938 199.972656 359.179688 C 191.679688 365.035156 171.207031 377.445312 162.644531 380.144531 C 162.023438 380.339844 161.394531 380.433594 160.777344 380.433594 " fill-opacity="1" fill-rule="nonzero"/></svg>