<svg xmlns="http://www.w3.org/2000/svg" xmlns:xlink="http://www.w3.org/1999/xlink" width="384" zoomAndPan="magnify" viewBox="0 0 384 383.999986" height="383.999986" preserveAspectRatio="xMidYMid meet" version="1.0"><defs><g><g id="id1"/></g><clipPath id="id2"><path d="M 105 47.371094 L 147 47.371094 L 147 89 L 105 89 Z M 105 47.371094 " clip-rule="nonzero"/></clipPath><clipPath id="id3"><path d="M 61.082031 73 L 109 73 L 109 122 L 61.082031 122 Z M 61.082031 73 " clip-rule="nonzero"/></clipPath><clipPath id="id4"><path d="M 100 98 L 268 98 L 268 286.113281 L 100 286.113281 Z M 100 98 " clip-rule="nonzero"/></clipPath><clipPath id="id5"><path d="M 255 190 L 284.628906 190 L 284.628906 209 L 255 209 Z M 255 190 " clip-rule="nonzero"/></clipPath></defs><g fill="rgb(0%, 65.879822%, 65.879822%)" fill-opacity="1"><g transform="translate(0.0000072, 294.08299)"><g><path d="M 170.421875 -187.578125 L 173.109375 -120.3125 L 168.015625 -120.3125 C 160.148438 -144.070312 153.179688 -160.285156 147.109375 -168.953125 C 141.035156 -177.617188 132.285156 -181.953125 120.859375 -181.953125 L 117.640625 -181.953125 L 117.640625 -5.625 L 140.421875 -5.625 L 140.421875 0 L 42.609375 0 L 42.609375 -5.625 L 65.390625 -5.625 L 65.390625 -181.953125 L 61.90625 -181.953125 C 50.46875 -181.953125 41.625 -177.441406 35.375 -168.421875 C 29.125 -159.398438 22.242188 -143.363281 14.734375 -120.3125 L 9.640625 -120.3125 L 12.328125 -187.578125 Z M 170.421875 -187.578125 "/></g></g></g><g fill="rgb(0%, 65.879822%, 65.879822%)" fill-opacity="1"><g transform="translate(225.342645, 294.08299)"><g><path d="M 5.625 -187.578125 L 144.96875 -187.578125 L 147.65625 -131.84375 L 142.828125 -131.84375 C 136.210938 -151.132812 128.570312 -164.265625 119.90625 -171.234375 C 111.25 -178.203125 98.34375 -181.6875 81.1875 -181.6875 L 73.6875 -181.6875 L 73.6875 -94.59375 L 85.75 -94.59375 C 94.320312 -94.59375 101.46875 -97.71875 107.1875 -103.96875 C 112.90625 -110.21875 116.835938 -118.796875 118.984375 -129.703125 L 123 -129.703125 L 123 -50.375 L 118.4375 -50.375 C 115.582031 -63.769531 111.609375 -73.328125 106.515625 -79.046875 C 101.421875 -84.765625 94.5 -87.625 85.75 -87.625 L 73.6875 -87.625 L 73.6875 -5.890625 L 106.921875 -5.890625 L 106.921875 0 L 5.625 0 L 5.625 -5.890625 L 21.4375 -5.890625 L 21.4375 -181.6875 L 5.625 -181.6875 Z M 5.625 -187.578125 "/></g></g></g><path fill="rgb(100%, 100%, 100%)" d="M 143.652344 67.738281 C 130.183594 69.917969 128.414062 71.6875 126.230469 85.132812 C 124.046875 71.6875 122.277344 69.917969 108.808594 67.738281 C 122.277344 65.558594 124.046875 63.789062 126.230469 50.339844 C 128.414062 63.789062 130.183594 65.558594 143.652344 67.738281 " fill-opacity="1" fill-rule="nonzero"/><g clip-path="url(#id2)"><path fill="rgb(13.729858%, 12.159729%, 12.548828%)" d="M 120.484375 67.738281 C 121.78125 68.382812 122.882812 69.152344 123.847656 70.117188 C 124.8125 71.082031 125.585938 72.179688 126.230469 73.476562 C 126.875 72.179688 127.648438 71.082031 128.613281 70.117188 C 129.578125 69.152344 130.679688 68.382812 131.976562 67.738281 C 130.679688 67.09375 129.578125 66.324219 128.613281 65.359375 C 127.648438 64.394531 126.875 63.296875 126.230469 62 C 125.585938 63.296875 124.8125 64.394531 123.847656 65.359375 C 122.882812 66.324219 121.78125 67.09375 120.484375 67.738281 Z M 126.230469 88.097656 C 124.773438 88.097656 123.535156 87.042969 123.300781 85.609375 C 122.339844 79.679688 121.472656 76.121094 119.652344 74.304688 C 117.832031 72.488281 114.269531 71.621094 108.332031 70.664062 C 106.894531 70.429688 105.84375 69.1875 105.84375 67.738281 C 105.84375 66.285156 106.894531 65.046875 108.332031 64.816406 C 114.269531 63.851562 117.832031 62.988281 119.652344 61.167969 C 121.472656 59.355469 122.339844 55.792969 123.300781 49.867188 C 123.535156 48.433594 124.773438 47.382812 126.230469 47.382812 C 127.683594 47.382812 128.921875 48.433594 129.15625 49.867188 C 130.121094 55.792969 130.988281 59.355469 132.808594 61.167969 C 134.625 62.988281 138.1875 63.851562 144.125 64.816406 C 145.5625 65.046875 146.617188 66.285156 146.617188 67.738281 C 146.617188 69.1875 145.5625 70.429688 144.125 70.664062 C 138.1875 71.621094 134.625 72.488281 132.808594 74.304688 C 130.988281 76.121094 130.121094 79.679688 129.15625 85.609375 C 128.921875 87.042969 127.683594 88.097656 126.230469 88.097656 " fill-opacity="1" fill-rule="nonzero"/></g><path fill="rgb(100%, 100%, 100%)" d="M 105.78125 97.484375 C 89.726562 100.085938 87.617188 102.191406 85.015625 118.21875 C 82.414062 102.191406 80.300781 100.085938 64.253906 97.484375 C 80.300781 94.886719 82.414062 92.777344 85.015625 76.753906 C 87.617188 92.777344 89.726562 94.886719 105.78125 97.484375 " fill-opacity="1" fill-rule="nonzero"/><g clip-path="url(#id3)"><path fill="rgb(13.729858%, 12.159729%, 12.548828%)" d="M 76.796875 97.484375 C 78.789062 98.324219 80.40625 99.355469 81.773438 100.722656 C 83.140625 102.085938 84.179688 103.703125 85.015625 105.691406 C 85.855469 103.703125 86.890625 102.085938 88.257812 100.722656 C 89.625 99.355469 91.242188 98.324219 93.234375 97.484375 C 91.242188 96.644531 89.625 95.613281 88.257812 94.246094 C 86.890625 92.882812 85.855469 91.265625 85.015625 89.277344 C 84.179688 91.265625 83.140625 92.882812 81.773438 94.246094 C 80.40625 95.613281 78.789062 96.644531 76.796875 97.484375 Z M 85.015625 121.179688 C 83.5625 121.179688 82.320312 120.125 82.089844 118.691406 C 80.921875 111.507812 79.859375 107.183594 77.578125 104.910156 C 75.300781 102.632812 70.972656 101.574219 63.777344 100.410156 C 62.34375 100.175781 61.285156 98.9375 61.285156 97.484375 C 61.285156 96.03125 62.34375 94.792969 63.777344 94.5625 C 70.972656 93.398438 75.300781 92.335938 77.578125 90.0625 C 79.859375 87.785156 80.921875 83.460938 82.089844 76.277344 C 82.320312 74.84375 83.5625 73.792969 85.015625 73.792969 C 86.472656 73.792969 87.710938 74.84375 87.945312 76.277344 C 89.109375 83.460938 90.175781 87.785156 92.453125 90.0625 C 94.730469 92.335938 99.0625 93.398438 106.253906 94.5625 C 107.691406 94.792969 108.746094 96.03125 108.746094 97.484375 C 108.746094 98.9375 107.691406 100.175781 106.253906 100.410156 C 99.0625 101.574219 94.730469 102.632812 92.453125 104.910156 C 90.175781 107.183594 89.109375 111.507812 87.945312 118.691406 C 87.710938 120.125 86.472656 121.179688 85.015625 121.179688 " fill-opacity="1" fill-rule="nonzero"/></g><g clip-path="url(#id4)"><path fill="rgb(100%, 100%, 100%)" d="M 209.265625 286.101562 C 209.070312 286.101562 208.871094 286.097656 208.671875 286.09375 C 205.761719 286.015625 203.304688 284.863281 201.371094 282.667969 C 199.832031 280.925781 198.652344 278.546875 197.769531 275.398438 C 196.273438 270.066406 195.8125 263.296875 195.324219 256.128906 C 194.808594 248.597656 194.277344 240.8125 192.46875 235.144531 C 190.21875 228.074219 186.832031 227.160156 184.128906 227.15625 C 181.429688 227.160156 178.042969 228.074219 175.789062 235.144531 C 173.984375 240.8125 173.453125 248.597656 172.941406 256.128906 C 172.453125 263.296875 171.992188 270.066406 170.492188 275.398438 C 169.609375 278.546875 168.429688 280.925781 166.890625 282.667969 C 164.957031 284.863281 162.5 286.015625 159.589844 286.09375 C 159.390625 286.097656 159.191406 286.101562 158.996094 286.101562 C 149.695312 286.101562 141.257812 280.125 133.910156 268.320312 C 128.054688 258.925781 122.777344 245.65625 118.222656 228.882812 C 117.289062 225.449219 116.050781 221.359375 114.617188 216.625 C 109.242188 198.898438 101.882812 174.621094 100.835938 152.523438 C 100.558594 146.660156 100.75 141.210938 101.40625 136.324219 C 102.136719 130.890625 103.46875 125.976562 105.355469 121.710938 C 109.675781 111.972656 117.039062 105.234375 127.246094 101.691406 C 139.421875 97.460938 150.53125 96.988281 161.214844 100.25 C 170.421875 103.058594 177.902344 108.203125 184.5 112.742188 C 184.503906 112.742188 184.503906 112.742188 184.503906 112.742188 C 192.605469 106.753906 200.332031 102.738281 208.089844 100.484375 C 213.207031 98.996094 218.40625 98.277344 223.542969 98.34375 C 229.253906 98.414062 235.050781 99.460938 240.769531 101.449219 C 251.007812 105.003906 258.394531 111.777344 262.726562 121.582031 C 264.621094 125.871094 265.957031 130.820312 266.691406 136.285156 C 267.355469 141.199219 267.546875 146.683594 267.273438 152.585938 C 266.8125 162.449219 265.074219 173.597656 261.964844 186.65625 C 259.320312 197.753906 256.113281 208.390625 253.539062 216.945312 C 252.148438 221.550781 250.949219 225.527344 250.035156 228.882812 C 245.480469 245.65625 240.203125 258.925781 234.351562 268.320312 C 227 280.125 218.566406 286.101562 209.265625 286.101562 " fill-opacity="1" fill-rule="nonzero"/><path fill="rgb(13.729858%, 12.159729%, 12.548828%)" d="M 184.160156 221.101562 C 187.816406 221.113281 190.921875 222.34375 193.398438 224.757812 C 195.472656 226.78125 197.058594 229.578125 198.246094 233.308594 C 200.273438 239.671875 200.832031 247.828125 201.371094 255.71875 C 201.835938 262.566406 202.277344 269.035156 203.605469 273.765625 C 205.34375 279.949219 207.789062 280.015625 208.835938 280.042969 C 216.0625 280.238281 222.917969 275.21875 229.207031 265.125 C 234.746094 256.230469 239.785156 243.503906 244.1875 227.300781 C 245.121094 223.863281 246.332031 219.847656 247.730469 215.199219 C 253.003906 197.722656 260.214844 173.792969 261.21875 152.304688 C 262.371094 127.574219 255.035156 112.808594 238.78125 107.164062 C 222.398438 101.472656 206.777344 104.386719 189.851562 116.351562 C 194.902344 119.609375 199.574219 121.980469 204.367188 121.980469 C 206.042969 121.980469 207.402344 123.335938 207.402344 125.003906 C 207.402344 126.675781 206.042969 128.035156 204.367188 128.035156 C 196.046875 128.035156 188.769531 123.027344 181.066406 117.726562 C 168.242188 108.90625 153.707031 98.90625 129.238281 107.40625 C 113.035156 113.035156 105.726562 127.695312 106.890625 152.238281 C 107.902344 173.582031 115.136719 197.445312 120.417969 214.871094 C 121.867188 219.652344 123.117188 223.78125 124.074219 227.300781 C 128.472656 243.503906 133.515625 256.230469 139.058594 265.125 C 145.34375 275.21875 152.195312 280.242188 159.421875 280.042969 C 160.46875 280.015625 162.921875 279.949219 164.65625 273.765625 C 165.984375 269.035156 166.425781 262.566406 166.890625 255.71875 C 167.429688 247.828125 167.984375 239.671875 170.015625 233.308594 C 171.203125 229.578125 172.789062 226.78125 174.863281 224.757812 C 177.339844 222.34375 180.445312 221.113281 184.101562 221.101562 C 184.105469 221.101562 184.113281 221.101562 184.117188 221.101562 L 184.140625 221.101562 C 184.148438 221.101562 184.152344 221.101562 184.160156 221.101562 Z M 209.265625 286.101562 C 209.070312 286.101562 208.871094 286.097656 208.671875 286.09375 C 205.761719 286.015625 203.304688 284.863281 201.371094 282.667969 C 199.832031 280.925781 198.652344 278.546875 197.769531 275.398438 C 196.273438 270.066406 195.8125 263.296875 195.324219 256.128906 C 194.808594 248.597656 194.277344 240.8125 192.46875 235.144531 C 190.21875 228.074219 186.832031 227.160156 184.128906 227.15625 C 181.429688 227.160156 178.042969 228.074219 175.789062 235.144531 C 173.984375 240.8125 173.453125 248.597656 172.941406 256.128906 C 172.453125 263.296875 171.992188 270.066406 170.492188 275.398438 C 169.609375 278.546875 168.429688 280.925781 166.890625 282.667969 C 164.957031 284.863281 162.5 286.015625 159.589844 286.09375 C 159.390625 286.097656 159.191406 286.101562 158.996094 286.101562 C 149.695312 286.101562 141.257812 280.125 133.910156 268.320312 C 128.054688 258.925781 122.777344 245.65625 118.222656 228.882812 C 117.289062 225.449219 116.050781 221.359375 114.617188 216.625 C 109.242188 198.898438 101.882812 174.621094 100.835938 152.523438 C 100.558594 146.660156 100.75 141.210938 101.40625 136.324219 C 102.136719 130.890625 103.46875 125.976562 105.355469 121.710938 C 109.675781 111.972656 117.039062 105.234375 127.246094 101.691406 C 139.421875 97.460938 150.53125 96.988281 161.214844 100.25 C 170.421875 103.058594 177.902344 108.203125 184.5 112.742188 C 184.503906 112.742188 184.503906 112.742188 184.503906 112.742188 C 192.605469 106.753906 200.332031 102.738281 208.089844 100.484375 C 213.207031 98.996094 218.40625 98.277344 223.542969 98.34375 C 229.253906 98.414062 235.050781 99.460938 240.769531 101.449219 C 251.007812 105.003906 258.394531 111.777344 262.726562 121.582031 C 264.621094 125.871094 265.957031 130.820312 266.691406 136.285156 C 267.355469 141.199219 267.546875 146.683594 267.273438 152.585938 C 266.8125 162.449219 265.074219 173.597656 261.964844 186.65625 C 259.320312 197.753906 256.113281 208.390625 253.539062 216.945312 C 252.148438 221.550781 250.949219 225.527344 250.035156 228.882812 C 245.480469 245.65625 240.203125 258.925781 234.351562 268.320312 C 227 280.125 218.566406 286.101562 209.265625 286.101562 " fill-opacity="1" fill-rule="nonzero"/></g><path fill="rgb(94.509888%, 46.269226%, 57.649231%)" d="M 229.582031 183.734375 C 229.507812 186.257812 224.5625 188.15625 218.546875 187.972656 C 212.527344 187.789062 207.710938 185.589844 207.789062 183.0625 C 207.867188 180.535156 212.808594 178.636719 218.828125 178.824219 C 224.847656 179.007812 229.664062 181.203125 229.582031 183.734375 " fill-opacity="1" fill-rule="nonzero"/><path fill="rgb(0%, 0%, 0%)" d="M 165.117188 162.371094 C 164.925781 168.566406 159.742188 173.429688 153.542969 173.238281 C 147.339844 173.046875 142.46875 167.875 142.660156 161.683594 C 142.847656 155.492188 148.027344 150.625 154.230469 150.816406 C 160.433594 151.007812 165.308594 156.179688 165.117188 162.371094 " fill-opacity="1" fill-rule="nonzero"/><path fill="rgb(100%, 100%, 100%)" d="M 161.773438 158.390625 C 161.707031 160.53125 159.914062 162.214844 157.769531 162.148438 C 155.625 162.078125 153.941406 160.292969 154.007812 158.148438 C 154.070312 156.007812 155.863281 154.324219 158.007812 154.390625 C 160.152344 154.457031 161.839844 156.246094 161.773438 158.390625 " fill-opacity="1" fill-rule="nonzero"/><path fill="rgb(100%, 100%, 100%)" d="M 150.640625 164.425781 C 150.605469 165.476562 149.722656 166.304688 148.667969 166.273438 C 147.613281 166.242188 146.785156 165.359375 146.820312 164.308594 C 146.851562 163.253906 147.730469 162.425781 148.785156 162.457031 C 149.839844 162.492188 150.671875 163.371094 150.640625 164.425781 " fill-opacity="1" fill-rule="nonzero"/><path fill="rgb(0%, 0%, 0%)" d="M 227.640625 164.289062 C 227.453125 170.480469 222.269531 175.34375 216.070312 175.15625 C 209.867188 174.964844 204.996094 169.792969 205.183594 163.597656 C 205.375 157.40625 210.558594 152.542969 216.757812 152.734375 C 222.960938 152.921875 227.832031 158.09375 227.640625 164.289062 " fill-opacity="1" fill-rule="nonzero"/><path fill="rgb(100%, 100%, 100%)" d="M 224.300781 160.304688 C 224.234375 162.445312 222.441406 164.128906 220.296875 164.0625 C 218.152344 163.996094 216.46875 162.207031 216.53125 160.066406 C 216.597656 157.921875 218.390625 156.238281 220.535156 156.308594 C 222.679688 156.375 224.367188 158.160156 224.300781 160.304688 " fill-opacity="1" fill-rule="nonzero"/><path fill="rgb(100%, 100%, 100%)" d="M 213.164062 166.34375 C 213.132812 167.394531 212.253906 168.222656 211.199219 168.191406 C 210.140625 168.15625 209.3125 167.277344 209.34375 166.222656 C 209.378906 165.167969 210.257812 164.339844 211.316406 164.375 C 212.371094 164.40625 213.195312 165.285156 213.164062 166.34375 " fill-opacity="1" fill-rule="nonzero"/><path fill="rgb(94.509888%, 46.269226%, 57.649231%)" d="M 161.015625 181.710938 C 160.9375 184.238281 155.996094 186.136719 149.976562 185.949219 C 143.960938 185.765625 139.144531 183.566406 139.222656 181.042969 C 139.296875 178.515625 144.242188 176.617188 150.257812 176.800781 C 156.277344 176.984375 161.089844 179.183594 161.015625 181.710938 " fill-opacity="1" fill-rule="nonzero"/><path fill="rgb(0%, 0%, 0%)" d="M 170.441406 176.101562 C 170.433594 176.363281 171.070312 197.894531 186.257812 197.609375 C 186.269531 197.609375 186.28125 197.609375 186.289062 197.609375 C 186.375 197.605469 186.460938 197.601562 186.542969 197.601562 C 186.628906 197.59375 186.714844 197.59375 186.796875 197.589844 C 186.808594 197.589844 186.816406 197.589844 186.828125 197.589844 C 202 196.785156 202.042969 176.84375 202.019531 176.59375 C 199.128906 172.988281 173.066406 172.300781 170.441406 176.101562 " fill-opacity="1" fill-rule="nonzero"/><path fill="rgb(94.509888%, 46.269226%, 57.649231%)" d="M 179.296875 186.515625 C 177.035156 186.5 174.933594 187.191406 173.195312 188.371094 C 175.382812 193.269531 179.285156 197.742188 186.257812 197.609375 C 186.269531 197.609375 186.28125 197.609375 186.289062 197.609375 C 186.375 197.605469 186.460938 197.601562 186.542969 197.601562 C 186.628906 197.59375 186.714844 197.59375 186.796875 197.589844 C 186.808594 197.589844 186.816406 197.589844 186.828125 197.589844 C 187.964844 197.527344 189.011719 197.359375 189.984375 197.101562 C 189.90625 191.265625 185.164062 186.546875 179.296875 186.515625 " fill-opacity="1" fill-rule="nonzero"/><g clip-path="url(#id5)"><path fill="rgb(13.729858%, 12.159729%, 12.548828%)" d="M 280.589844 208.5 C 280.246094 208.5 279.894531 208.453125 279.546875 208.339844 C 275.046875 206.921875 262.246094 200.210938 257.089844 196.570312 C 255.527344 195.464844 255.152344 193.304688 256.261719 191.742188 C 257.367188 190.183594 259.53125 189.8125 261.09375 190.917969 C 265.996094 194.382812 278.050781 200.609375 281.632812 201.738281 C 283.457031 202.3125 284.472656 204.257812 283.894531 206.082031 C 283.429688 207.558594 282.0625 208.5 280.589844 208.5 " fill-opacity="1" fill-rule="nonzero"/></g><path fill="rgb(13.729858%, 12.159729%, 12.548828%)" d="M 90.261719 213.578125 C 88.789062 213.578125 87.425781 212.632812 86.957031 211.15625 C 86.378906 209.332031 87.394531 207.390625 89.21875 206.8125 C 92.617188 205.742188 102.992188 199.710938 108.257812 195.992188 C 109.824219 194.886719 111.988281 195.257812 113.09375 196.820312 C 114.199219 198.378906 113.828125 200.539062 112.265625 201.644531 C 107.609375 204.933594 96.117188 211.898438 91.308594 213.414062 C 90.960938 213.523438 90.609375 213.578125 90.261719 213.578125 " fill-opacity="1" fill-rule="nonzero"/></svg>